Simulation
nRows=30
nColumns=15
endheader
time  TH_x TH_y TH_z SC_y  SC_z  SC_x  AC_y  AC_z  AC_x  GH_y  GH_z  GH_yy  EL_x  PS_y
0.0  0.000000  0.000000  0.000000  -36.95552698708298  0.711373286167975  -0.1664174427277454  46.08285878659731  4.329543688845086  -0.30047814798775774  42.31220505041443  5.476594693821097  -26.887904838195983  21.62856437912398  120.000000
0.03200000000000003  0.000000  0.000000  0.000000  -36.97522794170822  0.9455740749483287  -0.03858882189217479  45.66826675078394  4.643876988103103  -0.5282877999443099  42.49465000566352  5.258245323908455  -27.263081306668628  21.291176637756305  120.000000
0.06400000000000006  0.000000  0.000000  0.000000  -36.98079683479445  1.0836035631531682  0.035998927112342656  45.31273414354187  4.8812035955626065  -0.7381764072230135  42.697710100768845  5.032334736008723  -27.636207267026467  20.992241699395993  120.000000
0.09600000000000009  0.000000  0.000000  0.000000  -36.974440175214525  1.152145375703751  0.0611665541656615  45.03573761045523  5.034877821717254  -0.9102066850887874  42.91915842821737  4.8280488894176905  -28.026298728231154  20.74524664157396  120.000000
0.1280000000000001  0.000000  0.000000  0.000000  -36.96993035421011  1.1620647429800193  0.04766016974848425  44.84789531298967  5.113256509258817  -1.0310298705339211  43.15571680110671  4.680491483797852  -28.455037848869043  20.556072074869505  120.000000
0.16000000000000014  0.000000  0.000000  0.000000  -36.972725524140365  1.123858224666957  0.0072250098218718545  44.75722626480341  5.13145954156972  -1.0931841504722672  43.409869100337204  4.620839067146467  -28.93912117743859  20.428628599774274  120.000000
0.19200000000000017  0.000000  0.000000  0.000000  -36.97885778945785  1.0528355800556146  -0.05018840586104431  44.76805441855526  5.106861621834863  -1.0934403118727816  43.696938042985835  4.66833419492355  -29.48229218873242  20.369133443762657  120.000000
0.2240000000000002  0.000000  0.000000  0.000000  -36.98179986357352  0.9626835099388322  -0.1155250873530152  44.875422593546894  5.056730999439584  -1.0298703546088288  44.03951785587867  4.830995983923001  -30.081617245985804  20.380863674138904  120.000000
0.2560000000000002  0.000000  0.000000  0.000000  -36.976251050105844  0.8611627593533028  -0.18074719101725922  45.07323764274993  4.9978774189080575  -0.9036167143024351  44.46162425536273  5.113095556750921  -30.734096370190375  20.459665768836725  120.000000
0.28800000000000026  0.000000  0.000000  0.000000  -36.96042737331187  0.7514022603316101  -0.23821854163766443  45.354647851233665  4.94545923439737  -0.7181334353681565  44.986405970511164  5.519097524839204  -31.439793688624846  20.594054603371013  120.000000
0.3200000000000003  0.000000  0.000000  0.000000  -36.93654444376967  0.635150726527062  -0.28046012748368865  45.711223676089595  4.910821885907099  -0.47842236191477366  45.631864959585435  6.0554505021798715  -32.20625080446764  20.766926946495587  120.000000
0.3520000000000003  0.000000  0.000000  0.000000  -36.90774290453172  0.517299088168255  -0.3013825531361136  46.12841017260219  4.901597737385277  -0.19193369024950752  46.41153336655548  6.728712330593337  -33.04700595866408  20.961657782128487  120.000000
0.38400000000000034  0.000000  0.000000  0.000000  -36.87405732518098  0.40942009830689813  -0.29904800756503824  46.5862085708097  4.9227258061544585  0.12897253485555865  47.33390903470953  7.543914365217477  -33.980572533981906  21.168834616495413  120.000000
0.41600000000000037  0.000000  0.000000  0.000000  -36.83362515228758  0.3293615771397894  -0.27702467190076935  47.05922438973535  4.975598084883411  0.46974819979321586  48.40185389292318  8.504705369274951  -35.029319677805205  21.38455497815942  120.000000
0.4480000000000004  0.000000  0.000000  0.000000  -36.78583211844118  0.2943639373982647  -0.24394765227047155  47.5214895014016  5.0561020486027015  0.8183630540301534  49.60823425305355  9.615949416122646  -36.22166963821387  21.60321981108597  120.000000
0.4800000000000004  0.000000  0.000000  0.000000  -36.73136546144971  0.3120226121423551  -0.21140520433149776  47.953861983679275  5.15290479347945  1.1689833215551533  50.93291414985232  10.88615767240351  -37.591629453172054  21.81270259854394  120.000000
0.5120000000000005  0.000000  0.000000  0.000000  -36.669676478788936  0.37820602608238213  -0.1897477538304322  48.3494783786092  5.246357290293929  1.5259244016714386  52.343420327542425  12.324468650337899  -39.17234677898729  21.99502801692512  120.000000
0.5440000000000005  0.000000  0.000000  0.000000  -36.596775421255266  0.48245410434450636  -0.18366064843159627  48.711777829308026  5.31382211474939  1.9025601118708872  53.79995681333012  13.931835187113975  -40.98260993336166  22.133672531956222  120.000000
0.5760000000000005  0.000000  0.000000  0.000000  -36.506394098193844  0.6156918980296385  -0.18886709574673066  49.05031486416178  5.343012178825418  2.3123358456072247  55.26273617360378  15.692286929449377  -43.01059164036075  22.22320509245151  120.000000
0.6080000000000005  0.000000  0.000000  0.000000  -36.39462479457452  0.7772317912000897  -0.19163222082448417  49.37876428042218  5.342790198844001  2.7591031880975394  56.69791238754249  17.572876805926263  -45.20453889302761  22.27342049508252  120.000000
0.6400000000000006  0.000000  0.000000  0.000000  -36.26586740814455  0.9776344485487386  -0.1707540290156661  49.709962340588405  5.343582741733655  3.2360770648566843  58.08084417374546  19.529413395263127  -47.476418843019914  22.30602416147564  120.000000
0.6720000000000006  0.000000  0.000000  0.000000  -36.137021104938846  1.2344740016060913  -0.10200239680647245  50.05046590465562  5.3861968046204804  3.732880860143183  59.39593274166775  21.516279986392497  -49.720410912862384  22.344522143391224  120.000000
0.7040000000000006  0.000000  0.000000  0.000000  -36.03543914199056  1.5617710178817976  0.03441008894544848  50.400220037081596  5.505311834525611  4.243402157138731  60.63290761429102  23.499723059824976  -51.84233340113127  22.402031716401446  120.000000
0.7360000000000007  0.000000  0.000000  0.000000  -35.98965235212843  1.9616354315926943  0.24716218881092586  50.757546571443065  5.7169799873869875  4.768260975979361  61.78277090769742  25.467582226589787  -53.78659684978234  22.47421520750361  120.000000
0.7680000000000007  0.000000  0.000000  0.000000  -36.02030207162275  2.4266481343384467  0.5318225830311227  51.12371015778101  6.016438533946555  5.313828251192982  62.83792868677535  27.42827066220753  -55.54648656069797  22.540690429046514  120.000000
0.8000000000000007  0.000000  0.000000  0.000000  -36.13687254467758  2.947282946656564  0.8750033410700943  51.50299708637792  6.385013592763853  5.889490393491329  63.7946489266993  29.40127896063552  -57.156054937717485  22.57319305354504  120.000000
0.8320000000000007  0.000000  0.000000  0.000000  -36.337328114116175  3.514580751504361  1.26045131251254  51.899888756074766  6.801911505941607  6.505125126378155  64.6551579862371  31.405754034904493  -58.67097433561986  22.54546637972905  120.000000
0.8640000000000008  0.000000  0.000000  0.000000  -36.60945438179669  4.12036372259232  1.6739848988849972  52.31710449538231  7.253599475750034  7.168953846839693  65.42820028313601  33.452579821348635  -60.145548691020714  22.44123839625156  120.000000
0.8960000000000008  0.000000  0.000000  0.000000  -36.9365606442494  4.759388527023632  2.109025903716822  52.7533548932453  7.7355898497921  7.884343135044904  66.12848380861995  35.54007405573034  -61.61384878203689  22.25938318885765  120.000000
0.9280000000000008  0.000000  0.000000  0.000000  -37.30416621611083  5.429129188616682  2.567187471023802  53.20112708646981  8.251299816799646  8.648278522634575  66.7724104464706  37.65400168127117  -63.08199474085247  22.013409008640902  120.000000
